<svg xmlns="http://www.w3.org/2000/svg" viewBox="0 0 1100 1150" font-family="system-ui, -apple-system, sans-serif">
  <defs>
    <marker id="a" viewBox="0 0 10 10" refX="9" refY="5" markerWidth="5" markerHeight="5" orient="auto">
      <path d="M0 0L10 5L0 10z" fill="#94a3b8"/>
    </marker>
    <marker id="aBlue" viewBox="0 0 10 10" refX="9" refY="5" markerWidth="5" markerHeight="5" orient="auto">
      <path d="M0 0L10 5L0 10z" fill="#3b82f6" fill-opacity="0.5"/>
    </marker>
    <marker id="aGreen" viewBox="0 0 10 10" refX="9" refY="5" markerWidth="5" markerHeight="5" orient="auto">
      <path d="M0 0L10 5L0 10z" fill="#22c55e" fill-opacity="0.5"/>
    </marker>
    <marker id="aPink" viewBox="0 0 10 10" refX="9" refY="5" markerWidth="5" markerHeight="5" orient="auto">
      <path d="M0 0L10 5L0 10z" fill="#ec4899" fill-opacity="0.5"/>
    </marker>
  </defs>

  <rect width="1100" height="1150" fill="#fafaf9" rx="12"/>

  <!-- Title -->
  <text x="550" y="30" text-anchor="middle" fill="#1c1917" font-size="18" font-weight="700">RAG Modulo — Detailed Architecture</text>
  <text x="550" y="48" text-anchor="middle" fill="#78716c" font-size="11">Actual dependency wiring: 18 routers → 36 services → 19 repositories → 5 stores + 3 LLM providers</text>

  <!-- ===== CLIENT ===== -->
  <rect x="350" y="65" width="300" height="30" rx="14" fill="#fff" stroke="#d6d3d1" stroke-width="1"/>
  <text x="500" y="85" text-anchor="middle" fill="#44403c" font-size="11" font-weight="600">Client (React 18 + Vite + Carbon)</text>

  <!-- ===== MIDDLEWARE CHAIN ===== -->
  <rect x="150" y="110" width="700" height="26" rx="4" fill="#fef3c7" stroke="#f59e0b" stroke-width="1" stroke-opacity="0.4"/>
  <text x="500" y="128" text-anchor="middle" fill="#92400e" font-size="9">AuthenticationMiddleware → LoggingCORSMiddleware → HeaderCaptureMiddleware (MCP SSE)</text>

  <!-- ===== ROUTER LAYER ===== -->
  <rect x="30" y="150" width="1040" height="110" rx="10" fill="#fff" stroke="#f59e0b" stroke-width="2"/>
  <rect x="32" y="152" width="1036" height="4" rx="2" fill="#f59e0b" fill-opacity="0.3"/>
  <text x="50" y="174" fill="#b45309" font-size="13" font-weight="700">ROUTERS (18)</text>
  <text x="200" y="174" fill="#78716c" font-size="9">FastAPI route decorators. Thin HTTP — validate, auth, delegate to services via Depends().</text>

  <!-- Router boxes - Row 1 (main routers) -->
  <rect x="45" y="185" width="90" height="30" rx="5" fill="#fef3c7" stroke="#f59e0b" stroke-width="1"/>
  <text x="90" y="204" text-anchor="middle" fill="#92400e" font-size="9" font-weight="600">search</text>

  <rect x="145" y="185" width="110" height="30" rx="5" fill="#fef3c7" stroke="#f59e0b" stroke-width="1"/>
  <text x="200" y="204" text-anchor="middle" fill="#92400e" font-size="9" font-weight="600">conversation</text>

  <rect x="265" y="185" width="90" height="30" rx="5" fill="#fef3c7" stroke="#f59e0b" stroke-width="1"/>
  <text x="310" y="204" text-anchor="middle" fill="#92400e" font-size="9" font-weight="600">collection</text>

  <rect x="365" y="185" width="70" height="30" rx="5" fill="#fef3c7" stroke="#f59e0b" stroke-width="1"/>
  <text x="400" y="204" text-anchor="middle" fill="#92400e" font-size="9" font-weight="600">podcast</text>

  <rect x="445" y="185" width="55" height="30" rx="5" fill="#fef3c7" stroke="#f59e0b" stroke-width="1"/>
  <text x="472" y="204" text-anchor="middle" fill="#92400e" font-size="9" font-weight="600">chat</text>

  <rect x="510" y="185" width="55" height="30" rx="5" fill="#fef3c7" stroke="#f59e0b" stroke-width="1"/>
  <text x="537" y="204" text-anchor="middle" fill="#92400e" font-size="9" font-weight="600">auth</text>

  <rect x="575" y="185" width="55" height="30" rx="5" fill="#fef3c7" stroke="#f59e0b" stroke-width="1"/>
  <text x="602" y="204" text-anchor="middle" fill="#92400e" font-size="9" font-weight="600">user</text>

  <rect x="640" y="185" width="55" height="30" rx="5" fill="#fef3c7" stroke="#f59e0b" stroke-width="1"/>
  <text x="667" y="204" text-anchor="middle" fill="#92400e" font-size="9" font-weight="600">team</text>

  <rect x="705" y="185" width="55" height="30" rx="5" fill="#fef3c7" stroke="#f59e0b" stroke-width="1"/>
  <text x="732" y="204" text-anchor="middle" fill="#92400e" font-size="9" font-weight="600">voice</text>

  <rect x="770" y="185" width="55" height="30" rx="5" fill="#fef3c7" stroke="#f59e0b" stroke-width="1"/>
  <text x="797" y="204" text-anchor="middle" fill="#92400e" font-size="9" font-weight="600">agent</text>

  <rect x="835" y="185" width="55" height="30" rx="5" fill="#fef3c7" stroke="#f59e0b" stroke-width="1"/>
  <text x="862" y="204" text-anchor="middle" fill="#92400e" font-size="9" font-weight="600">mcp</text>

  <!-- Row 2 (secondary routers) -->
  <rect x="45" y="222" width="85" height="24" rx="4" fill="#fefce8" stroke="#eab308" stroke-width="0.5"/>
  <text x="87" y="238" text-anchor="middle" fill="#a16207" font-size="8">llm_provider</text>
  <rect x="140" y="222" width="85" height="24" rx="4" fill="#fefce8" stroke="#eab308" stroke-width="0.5"/>
  <text x="182" y="238" text-anchor="middle" fill="#a16207" font-size="8">dashboard</text>
  <rect x="235" y="222" width="95" height="24" rx="4" fill="#fefce8" stroke="#eab308" stroke-width="0.5"/>
  <text x="282" y="238" text-anchor="middle" fill="#a16207" font-size="8">runtime_config</text>
  <rect x="340" y="222" width="95" height="24" rx="4" fill="#fefce8" stroke="#eab308" stroke-width="0.5"/>
  <text x="387" y="238" text-anchor="middle" fill="#a16207" font-size="8">token_warning</text>
  <rect x="445" y="222" width="65" height="24" rx="4" fill="#fefce8" stroke="#eab308" stroke-width="0.5"/>
  <text x="477" y="238" text-anchor="middle" fill="#a16207" font-size="8">health</text>
  <rect x="520" y="222" width="85" height="24" rx="4" fill="#fefce8" stroke="#eab308" stroke-width="0.5"/>
  <text x="562" y="238" text-anchor="middle" fill="#a16207" font-size="8">websocket</text>

  <!-- ===== Depends() arrows ===== -->
  <text x="550" y="274" text-anchor="middle" fill="#78716c" font-size="9" font-style="italic">Depends(get_*_service) — 19 factory functions in core/dependencies.py</text>

  <!-- ===== SERVICE LAYER ===== -->
  <rect x="30" y="285" width="1040" height="410" rx="10" fill="#fff" stroke="#3b82f6" stroke-width="2"/>
  <rect x="32" y="287" width="1036" height="4" rx="2" fill="#3b82f6" fill-opacity="0.3"/>
  <text x="50" y="310" fill="#1e40af" font-size="13" font-weight="700">SERVICES (36)</text>
  <text x="200" y="310" fill="#78716c" font-size="9">All business logic. Constructor-based DI. Services call repositories, never DB directly.</text>

  <!-- Search domain -->
  <rect x="45" y="322" width="250" height="195" rx="8" fill="#eff6ff" stroke="#3b82f6" stroke-width="1" stroke-opacity="0.5"/>
  <text x="55" y="340" fill="#1e40af" font-size="10" font-weight="700">Search Domain</text>

  <rect x="55" y="348" width="228" height="22" rx="3" fill="#dbeafe"/>
  <text x="65" y="363" fill="#1e40af" font-size="9" font-weight="600">SearchService</text>
  <text x="235" y="363" fill="#64748b" font-size="7" text-anchor="end">→ PipelineService, LLMProviderFactory</text>

  <rect x="55" y="374" width="228" height="22" rx="3" fill="#dbeafe"/>
  <text x="65" y="389" fill="#1e40af" font-size="9" font-weight="600">ChainOfThoughtService</text>
  <text x="235" y="389" fill="#64748b" font-size="7" text-anchor="end">→ SearchService, TokenTracking</text>

  <rect x="55" y="400" width="228" height="22" rx="3" fill="#dbeafe"/>
  <text x="65" y="415" fill="#1e40af" font-size="9" font-weight="600">EntityExtractionService</text>
  <text x="235" y="415" fill="#64748b" font-size="7" text-anchor="end">→ LLMProviderFactory</text>

  <rect x="55" y="426" width="228" height="22" rx="3" fill="#dbeafe"/>
  <text x="65" y="441" fill="#1e40af" font-size="9">QuestionDecomposer</text>

  <rect x="55" y="452" width="228" height="22" rx="3" fill="#dbeafe"/>
  <text x="65" y="467" fill="#1e40af" font-size="9">AnswerSynthesizer</text>

  <rect x="55" y="478" width="228" height="22" rx="3" fill="#dbeafe"/>
  <text x="65" y="493" fill="#1e40af" font-size="9">SourceAttributionService, CitationAttribution</text>

  <!-- Pipeline stages sub-box -->
  <rect x="55" y="503" width="228" height="8" rx="2" fill="#93c5fd" fill-opacity="0.3"/>
  <text x="169" y="510" text-anchor="middle" fill="#1e40af" font-size="6">6 PIPELINE STAGES: Resolution → Enhance → Retrieve → Rerank → Reason → Generate</text>

  <!-- Conversation domain -->
  <rect x="310" y="322" width="250" height="195" rx="8" fill="#f0fdf4" stroke="#22c55e" stroke-width="1" stroke-opacity="0.5"/>
  <text x="320" y="340" fill="#166534" font-size="10" font-weight="700">Conversation Domain</text>

  <rect x="320" y="348" width="228" height="22" rx="3" fill="#dcfce7"/>
  <text x="330" y="363" fill="#166534" font-size="9" font-weight="600">MessageProcessingOrchestrator</text>

  <rect x="320" y="374" width="228" height="22" rx="3" fill="#dcfce7"/>
  <text x="330" y="389" fill="#166534" font-size="9" font-weight="600">ConversationService</text>
  <text x="500" y="389" fill="#64748b" font-size="7" text-anchor="end">→ ConversationRepo, QuestionSvc</text>

  <rect x="320" y="400" width="228" height="22" rx="3" fill="#dcfce7"/>
  <text x="330" y="415" fill="#166534" font-size="9">ConversationContextService</text>
  <text x="500" y="415" fill="#64748b" font-size="7" text-anchor="end">→ EntityExtractionSvc</text>

  <rect x="320" y="426" width="228" height="22" rx="3" fill="#dcfce7"/>
  <text x="330" y="441" fill="#166534" font-size="9">ConversationSummarizationService</text>

  <rect x="320" y="452" width="228" height="22" rx="3" fill="#dcfce7"/>
  <text x="330" y="467" fill="#166534" font-size="9">TokenTrackingService</text>
  <text x="500" y="467" fill="#64748b" font-size="7" text-anchor="end">→ TokenWarningRepo, LLMModelSvc</text>

  <rect x="320" y="478" width="228" height="22" rx="3" fill="#dcfce7"/>
  <text x="330" y="493" fill="#166534" font-size="9">DashboardService</text>

  <!-- LLM Config domain -->
  <rect x="575" y="322" width="230" height="195" rx="8" fill="#fdf4ff" stroke="#a855f7" stroke-width="1" stroke-opacity="0.5"/>
  <text x="585" y="340" fill="#6b21a8" font-size="10" font-weight="700">LLM Config Domain</text>

  <rect x="585" y="348" width="208" height="22" rx="3" fill="#f3e8ff"/>
  <text x="595" y="363" fill="#6b21a8" font-size="9" font-weight="600">PipelineService</text>
  <text x="745" y="363" fill="#64748b" font-size="7" text-anchor="end">→ 3 config services</text>

  <rect x="585" y="374" width="208" height="22" rx="3" fill="#f3e8ff"/>
  <text x="595" y="389" fill="#6b21a8" font-size="9">LLMProviderService</text>
  <text x="745" y="389" fill="#64748b" font-size="7" text-anchor="end">→ LLMProviderRepo</text>

  <rect x="585" y="400" width="208" height="22" rx="3" fill="#f3e8ff"/>
  <text x="595" y="415" fill="#6b21a8" font-size="9">LLMModelService</text>
  <text x="745" y="415" fill="#64748b" font-size="7" text-anchor="end">→ LLMModelRepo, ProviderRepo</text>

  <rect x="585" y="426" width="208" height="22" rx="3" fill="#f3e8ff"/>
  <text x="595" y="441" fill="#6b21a8" font-size="9">LLMParametersService</text>
  <text x="745" y="441" fill="#64748b" font-size="7" text-anchor="end">→ LLMParametersRepo</text>

  <rect x="585" y="452" width="208" height="22" rx="3" fill="#f3e8ff"/>
  <text x="595" y="467" fill="#6b21a8" font-size="9">PromptTemplateService</text>
  <text x="745" y="467" fill="#64748b" font-size="7" text-anchor="end">→ PromptTemplateRepo</text>

  <rect x="585" y="478" width="208" height="22" rx="3" fill="#f3e8ff"/>
  <text x="595" y="493" fill="#6b21a8" font-size="9">RuntimeConfigService</text>
  <text x="745" y="493" fill="#64748b" font-size="7" text-anchor="end">→ RuntimeConfigRepo</text>

  <!-- Data & Content domain -->
  <rect x="820" y="322" width="235" height="195" rx="8" fill="#fff7ed" stroke="#f97316" stroke-width="1" stroke-opacity="0.5"/>
  <text x="830" y="340" fill="#9a3412" font-size="10" font-weight="700">Data + Content Domain</text>

  <rect x="830" y="348" width="213" height="22" rx="3" fill="#fed7aa"/>
  <text x="840" y="363" fill="#9a3412" font-size="9" font-weight="600">CollectionService</text>
  <text x="995" y="363" fill="#64748b" font-size="7" text-anchor="end">→ CollectionRepo, FileSvc</text>

  <rect x="830" y="374" width="213" height="22" rx="3" fill="#fed7aa"/>
  <text x="840" y="389" fill="#9a3412" font-size="9">FileManagementService</text>
  <text x="995" y="389" fill="#64748b" font-size="7" text-anchor="end">→ FileRepo</text>

  <rect x="830" y="400" width="213" height="22" rx="3" fill="#fed7aa"/>
  <text x="840" y="415" fill="#9a3412" font-size="9">UserService</text>
  <text x="995" y="415" fill="#64748b" font-size="7" text-anchor="end">→ UserRepo</text>

  <rect x="830" y="426" width="213" height="22" rx="3" fill="#fed7aa"/>
  <text x="840" y="441" fill="#9a3412" font-size="9">TeamService / UserTeamService</text>
  <text x="995" y="441" fill="#64748b" font-size="7" text-anchor="end">→ TeamRepo, UserTeamRepo</text>

  <rect x="830" y="452" width="213" height="22" rx="3" fill="#fed7aa"/>
  <text x="840" y="467" fill="#9a3412" font-size="9">PodcastService</text>
  <text x="995" y="467" fill="#64748b" font-size="7" text-anchor="end">→ PodcastRepo, CollectionSvc</text>

  <rect x="830" y="478" width="213" height="22" rx="3" fill="#fed7aa"/>
  <text x="840" y="493" fill="#9a3412" font-size="9">VoiceService / AgentService</text>
  <text x="995" y="493" fill="#64748b" font-size="7" text-anchor="end">→ VoiceRepo, AgentRepo</text>

  <!-- Shared instances box -->
  <rect x="45" y="530" width="510" height="55" rx="6" fill="#f8fafc" stroke="#cbd5e1" stroke-width="1" stroke-dasharray="4,3"/>
  <text x="55" y="548" fill="#475569" font-size="9" font-weight="600">Shared Instances (core/dependencies.py → get_message_processing_orchestrator)</text>
  <text x="55" y="562" fill="#64748b" font-size="8">LLMProviderService, PromptTemplateService, LLMParametersService, LLMModelService — created once,</text>
  <text x="55" y="574" fill="#64748b" font-size="8">injected into PipelineService → SearchService → ChainOfThoughtService → MessageProcessingOrchestrator</text>

  <!-- Performance patterns box -->
  <rect x="575" y="530" width="480" height="55" rx="6" fill="#f8fafc" stroke="#cbd5e1" stroke-width="1" stroke-dasharray="4,3"/>
  <text x="585" y="548" fill="#475569" font-size="9" font-weight="600">Performance Patterns (added late to fix 48+ queries/request)</text>
  <text x="585" y="562" fill="#64748b" font-size="8">PipelineContext: @dataclass(frozen=True) — one composite query, threaded through all stages</text>
  <text x="585" y="574" fill="#64748b" font-size="8">ConfigCache: request-scoped dict cache — no TTL, dies with request, prevents duplicate lookups</text>

  <!-- Validation schemas box -->
  <rect x="45" y="600" width="1010" height="35" rx="6" fill="#fefce8" stroke="#eab308" stroke-width="1" stroke-opacity="0.4"/>
  <text x="55" y="620" fill="#854d0e" font-size="9" font-weight="600">Schemas (25 Pydantic models)</text>
  <text x="250" y="620" fill="#78716c" font-size="8">SearchInput/Output, CollectionInput/Output, ConversationSchema, PipelineContext, StructuredAnswer, ChainOfThoughtSchema, LLMUsage, ...</text>

  <!-- Quality services box -->
  <rect x="45" y="645" width="1010" height="30" rx="6" fill="#f0f9ff" stroke="#0ea5e9" stroke-width="1" stroke-opacity="0.3"/>
  <text x="55" y="664" fill="#0369a1" font-size="9" font-weight="600">Quality Services</text>
  <text x="200" y="664" fill="#78716c" font-size="8">OutputValidatorService (citation validity, confidence calibration, retry logic) | SearchResultEnricher | QuestionService (suggestions)</text>

  <!-- ===== REPOSITORY LAYER ===== -->
  <rect x="30" y="695" width="1040" height="140" rx="10" fill="#fff" stroke="#22c55e" stroke-width="2"/>
  <rect x="32" y="697" width="1036" height="4" rx="2" fill="#22c55e" fill-opacity="0.3"/>
  <text x="50" y="720" fill="#166534" font-size="13" font-weight="700">REPOSITORIES (19)</text>
  <text x="230" y="720" fill="#78716c" font-size="9">Data access only. SQLAlchemy Session injection. Returns DB models, never Pydantic. joinedload() for N+1 prevention.</text>

  <!-- Repo boxes - organized by domain -->
  <rect x="45" y="735" width="130" height="20" rx="3" fill="#dcfce7"/>
  <text x="110" y="749" text-anchor="middle" fill="#166534" font-size="8">CollectionRepository</text>

  <rect x="185" y="735" width="130" height="20" rx="3" fill="#dcfce7"/>
  <text x="250" y="749" text-anchor="middle" fill="#166534" font-size="8">ConversationRepository</text>

  <rect x="325" y="735" width="95" height="20" rx="3" fill="#dcfce7"/>
  <text x="372" y="749" text-anchor="middle" fill="#166534" font-size="8">FileRepository</text>

  <rect x="430" y="735" width="95" height="20" rx="3" fill="#dcfce7"/>
  <text x="477" y="749" text-anchor="middle" fill="#166534" font-size="8">UserRepository</text>

  <rect x="535" y="735" width="95" height="20" rx="3" fill="#dcfce7"/>
  <text x="582" y="749" text-anchor="middle" fill="#166534" font-size="8">TeamRepository</text>

  <rect x="640" y="735" width="115" height="20" rx="3" fill="#dcfce7"/>
  <text x="697" y="749" text-anchor="middle" fill="#166534" font-size="8">PipelineConfigRepo</text>

  <rect x="765" y="735" width="130" height="20" rx="3" fill="#dcfce7"/>
  <text x="830" y="749" text-anchor="middle" fill="#166534" font-size="8">PipelineContextRepo</text>

  <!-- Row 2 -->
  <rect x="45" y="762" width="120" height="20" rx="3" fill="#dcfce7"/>
  <text x="105" y="776" text-anchor="middle" fill="#166534" font-size="8">LLMProviderRepo</text>

  <rect x="175" y="762" width="110" height="20" rx="3" fill="#dcfce7"/>
  <text x="230" y="776" text-anchor="middle" fill="#166534" font-size="8">LLMModelRepo</text>

  <rect x="295" y="762" width="125" height="20" rx="3" fill="#dcfce7"/>
  <text x="357" y="776" text-anchor="middle" fill="#166534" font-size="8">LLMParametersRepo</text>

  <rect x="430" y="762" width="130" height="20" rx="3" fill="#dcfce7"/>
  <text x="495" y="776" text-anchor="middle" fill="#166534" font-size="8">PromptTemplateRepo</text>

  <rect x="570" y="762" width="105" height="20" rx="3" fill="#dcfce7"/>
  <text x="622" y="776" text-anchor="middle" fill="#166534" font-size="8">QuestionRepo</text>

  <rect x="685" y="762" width="100" height="20" rx="3" fill="#dcfce7"/>
  <text x="735" y="776" text-anchor="middle" fill="#166534" font-size="8">PodcastRepo</text>

  <!-- Row 3 -->
  <rect x="45" y="789" width="120" height="20" rx="3" fill="#dcfce7"/>
  <text x="105" y="803" text-anchor="middle" fill="#166534" font-size="8">UserCollectionRepo</text>

  <rect x="175" y="789" width="115" height="20" rx="3" fill="#dcfce7"/>
  <text x="232" y="803" text-anchor="middle" fill="#166534" font-size="8">UserProviderRepo</text>

  <rect x="300" y="789" width="105" height="20" rx="3" fill="#dcfce7"/>
  <text x="352" y="803" text-anchor="middle" fill="#166534" font-size="8">UserTeamRepo</text>

  <rect x="415" y="789" width="90" height="20" rx="3" fill="#dcfce7"/>
  <text x="460" y="803" text-anchor="middle" fill="#166534" font-size="8">AgentRepo</text>

  <rect x="515" y="789" width="85" height="20" rx="3" fill="#dcfce7"/>
  <text x="557" y="803" text-anchor="middle" fill="#166534" font-size="8">VoiceRepo</text>

  <rect x="610" y="789" width="120" height="20" rx="3" fill="#dcfce7"/>
  <text x="670" y="803" text-anchor="middle" fill="#166534" font-size="8">RuntimeConfigRepo</text>

  <rect x="740" y="789" width="130" height="20" rx="3" fill="#dcfce7"/>
  <text x="805" y="803" text-anchor="middle" fill="#166534" font-size="8">TokenWarningRepo</text>

  <!-- ===== MODELS ===== -->
  <rect x="30" y="855" width="520" height="45" rx="8" fill="#fff" stroke="#06b6d4" stroke-width="1.5"/>
  <text x="50" y="878" fill="#0e7490" font-size="11" font-weight="700">SQLAlchemy Models (19)</text>
  <text x="50" y="892" fill="#78716c" font-size="8">Collection, Conversation, File, Pipeline, User, Team, LLMProvider, LLMModel, LLMParameters, PromptTemplate, Podcast, Voice, Agent, Question, RuntimeConfig, TokenWarning, UserCollection, UserTeam, UserProvider</text>

  <!-- ===== FACTORIES ===== -->
  <rect x="570" y="855" width="500" height="45" rx="8" fill="#fff" stroke="#ec4899" stroke-width="1.5"/>
  <text x="590" y="878" fill="#9d174d" font-size="11" font-weight="700">Factories</text>

  <rect x="590" y="882" width="110" height="14" rx="3" fill="#fce7f3"/>
  <text x="645" y="893" text-anchor="middle" fill="#9d174d" font-size="8" font-weight="600">LLMProviderFactory</text>

  <rect x="710" y="882" width="110" height="14" rx="3" fill="#fce7f3"/>
  <text x="765" y="893" text-anchor="middle" fill="#9d174d" font-size="8" font-weight="600">VectorStoreFactory</text>

  <text x="840" y="893" fill="#78716c" font-size="8">Thread-safe, instance caching</text>

  <!-- ===== INFRASTRUCTURE ===== -->
  <rect x="30" y="920" width="1040" height="95" rx="10" fill="#fff" stroke="#64748b" stroke-width="1.5"/>
  <text x="50" y="945" fill="#374151" font-size="13" font-weight="700">Infrastructure</text>

  <!-- Postgres -->
  <rect x="60" y="955" width="110" height="45" rx="6" fill="#f5f5f4" stroke="#d6d3d1" stroke-width="1"/>
  <ellipse cx="115" cy="968" rx="22" ry="7" fill="#d6d3d1"/>
  <text x="115" y="990" text-anchor="middle" fill="#44403c" font-size="9" font-weight="600">PostgreSQL</text>

  <!-- Milvus -->
  <rect x="190" y="955" width="100" height="45" rx="6" fill="#f5f5f4" stroke="#d6d3d1" stroke-width="1"/>
  <ellipse cx="240" cy="968" rx="22" ry="7" fill="#d6d3d1"/>
  <text x="240" y="990" text-anchor="middle" fill="#44403c" font-size="9" font-weight="600">Milvus</text>

  <!-- MinIO -->
  <rect x="310" y="955" width="80" height="45" rx="6" fill="#f5f5f4" stroke="#d6d3d1" stroke-width="1"/>
  <ellipse cx="350" cy="968" rx="22" ry="7" fill="#d6d3d1"/>
  <text x="350" y="990" text-anchor="middle" fill="#44403c" font-size="9" font-weight="600">MinIO</text>

  <!-- MLFlow -->
  <rect x="410" y="955" width="80" height="45" rx="6" fill="#f5f5f4" stroke="#d6d3d1" stroke-width="1"/>
  <text x="450" y="982" text-anchor="middle" fill="#44403c" font-size="9" font-weight="600">MLFlow</text>

  <!-- LLM Providers -->
  <rect x="530" y="955" width="250" height="45" rx="6" fill="#fce7f3" stroke="#ec4899" stroke-width="1"/>
  <text x="540" y="972" fill="#9d174d" font-size="9" font-weight="600">LLM APIs</text>
  <rect x="540" y="978" width="65" height="16" rx="3" fill="#fbcfe8"/>
  <text x="572" y="990" text-anchor="middle" fill="#9d174d" font-size="8">WatsonX</text>
  <rect x="612" y="978" width="55" height="16" rx="3" fill="#fbcfe8"/>
  <text x="639" y="990" text-anchor="middle" fill="#9d174d" font-size="8">OpenAI</text>
  <rect x="674" y="978" width="65" height="16" rx="3" fill="#fbcfe8"/>
  <text x="706" y="990" text-anchor="middle" fill="#9d174d" font-size="8">Anthropic</text>

  <!-- Vector Stores -->
  <rect x="800" y="955" width="255" height="45" rx="6" fill="#ede9fe" stroke="#8b5cf6" stroke-width="1"/>
  <text x="810" y="972" fill="#5b21b6" font-size="9" font-weight="600">Vector Stores</text>
  <text x="810" y="990" fill="#6b21a8" font-size="7">Milvus | Elasticsearch | Pinecone | Weaviate | ChromaDB</text>

  <!-- MCP Gateway -->
  <rect x="30" y="1030" width="1040" height="40" rx="8" fill="#fff" stroke="#ef4444" stroke-width="1" stroke-opacity="0.5"/>
  <text x="50" y="1054" fill="#991b1b" font-size="10" font-weight="600">MCP Gateway Client</text>
  <text x="220" y="1054" fill="#78716c" font-size="9">Circuit Breaker (CLOSED →5 fails→ OPEN →60s→ HALF_OPEN) | graceful degradation: core RAG works if tools fail</text>

  <!-- CI/CD -->
  <rect x="30" y="1085" width="1040" height="35" rx="8" fill="#f8fafc" stroke="#475569" stroke-width="1"/>
  <text x="50" y="1107" fill="#374151" font-size="10" font-weight="600">CI/CD</text>
  <text x="110" y="1107" fill="#78716c" font-size="9">21 workflows: 01-lint → 02-security → 03-build → 04-pytest → 05-ci | weekly audit | deploy (Code Engine, Helm) | docs (MkDocs)</text>

  <!-- Footer -->
  <text x="550" y="1140" text-anchor="middle" fill="#a8a29e" font-size="9">Router → Service → Repository → Model/DB | 9 Docker Compose configs | Terraform + Ansible + Helm</text>
</svg>
